<svg width="568" height="527" viewBox="0 0 568 527" fill="none" xmlns="http://www.w3.org/2000/svg">
<path d="M406.557 188.59C408.651 190.764 422.039 244.262 424.098 252.202L405.657 270.659L405.1 270.481C402.675 265.666 401.39 257.441 399.958 252.069L387.917 207.258L406.557 188.59Z" fill="white"/>
<path d="M391.081 400.074C393.153 401.657 406.413 454.799 408.228 461.603C414.03 462.714 419.188 464.553 423.854 468.283C424.253 468.601 424.644 468.928 425.026 469.265C425.409 469.602 425.783 469.948 426.147 470.304C426.513 470.66 426.869 471.024 427.216 471.398C427.563 471.771 427.9 472.153 428.228 472.544C428.556 472.934 428.874 473.332 429.182 473.739C429.49 474.145 429.788 474.558 430.075 474.979C430.363 475.4 430.64 475.828 430.906 476.263C431.172 476.697 431.427 477.139 431.671 477.587C431.915 478.034 432.148 478.487 432.37 478.947C432.592 479.405 432.802 479.87 433 480.34C433.198 480.809 433.385 481.283 433.559 481.762C433.734 482.241 433.897 482.724 434.047 483.211C434.198 483.698 434.336 484.189 434.462 484.683C434.589 485.176 434.703 485.673 434.804 486.173C434.906 486.672 434.995 487.174 435.071 487.678C435.147 488.182 435.211 488.687 435.262 489.195C435.318 489.707 435.36 490.22 435.39 490.734C435.42 491.248 435.437 491.762 435.441 492.277C435.445 492.792 435.437 493.307 435.415 493.821C435.394 494.335 435.36 494.849 435.313 495.362C435.267 495.874 435.207 496.386 435.135 496.896C435.063 497.406 434.979 497.913 434.881 498.419C434.784 498.924 434.674 499.427 434.552 499.928C434.43 500.428 434.296 500.924 434.149 501.418C434.003 501.911 433.844 502.401 433.672 502.887C433.501 503.372 433.318 503.853 433.123 504.33C432.929 504.807 432.722 505.278 432.503 505.745C432.285 506.211 432.056 506.671 431.814 507.126C431.573 507.581 431.321 508.03 431.057 508.473C430.794 508.915 430.52 509.35 430.234 509.779C429.95 510.208 429.654 510.63 429.348 511.044C429.042 511.458 428.726 511.864 428.4 512.263C422.229 519.733 414.443 522.679 405.034 523.602C404.622 523.594 404.209 523.58 403.797 523.561C395.033 523.13 387.033 519.656 381.177 513.034C380.839 512.65 380.509 512.259 380.189 511.859C379.87 511.459 379.561 511.052 379.261 510.637C378.962 510.221 378.673 509.799 378.395 509.37C378.117 508.94 377.849 508.504 377.592 508.062C377.336 507.618 377.091 507.169 376.856 506.715C376.622 506.259 376.4 505.799 376.188 505.333C375.977 504.867 375.777 504.396 375.589 503.92C375.401 503.444 375.225 502.963 375.061 502.479C374.897 501.994 374.745 501.506 374.605 501.014C374.465 500.522 374.338 500.026 374.222 499.528C374.108 499.029 374.005 498.528 373.914 498.024C373.824 497.52 373.747 497.014 373.681 496.507C373.616 496 373.564 495.49 373.524 494.98C373.484 494.47 373.457 493.959 373.442 493.448C373.428 492.936 373.426 492.425 373.437 491.913C373.448 491.401 373.472 490.89 373.508 490.38C374.125 480.907 378.77 473.756 385.777 467.685C381.199 451.358 376.969 434.915 372.573 418.537L391.081 400.074Z" fill="white"/>
<path d="M401.209 477.263C404.214 476.948 407.129 476.998 409.982 478.108C410.471 478.296 410.949 478.508 411.417 478.745C411.885 478.981 412.339 479.24 412.779 479.524C413.221 479.806 413.646 480.11 414.056 480.436C414.466 480.762 414.858 481.108 415.233 481.474C415.608 481.839 415.964 482.223 416.3 482.625C416.636 483.027 416.951 483.444 417.244 483.878C417.538 484.312 417.809 484.759 418.057 485.221C418.305 485.682 418.529 486.155 418.729 486.639C418.935 487.133 419.115 487.637 419.269 488.151C419.423 488.664 419.549 489.184 419.648 489.711C419.748 490.237 419.82 490.768 419.864 491.302C419.908 491.836 419.925 492.37 419.913 492.906C419.902 493.442 419.863 493.975 419.795 494.507C419.728 495.039 419.633 495.566 419.511 496.088C419.389 496.609 419.24 497.123 419.064 497.63C418.889 498.136 418.688 498.631 418.46 499.117C416.227 503.817 412.372 506.171 407.622 507.738C404.535 508.118 401.518 507.991 398.611 506.798C398.135 506.604 397.669 506.388 397.214 506.148C396.76 505.908 396.318 505.645 395.89 505.361C395.462 505.076 395.049 504.771 394.651 504.445C394.254 504.118 393.874 503.772 393.511 503.408C393.149 503.043 392.806 502.661 392.482 502.262C392.158 501.862 391.855 501.448 391.573 501.019C391.291 500.589 391.031 500.146 390.793 499.69C390.556 499.234 390.342 498.767 390.152 498.289C389.951 497.789 389.776 497.28 389.628 496.762C389.48 496.243 389.36 495.718 389.266 495.188C389.173 494.657 389.107 494.123 389.069 493.585C389.032 493.047 389.023 492.509 389.041 491.971C389.06 491.432 389.106 490.896 389.18 490.362C389.255 489.828 389.357 489.299 389.487 488.777C389.617 488.253 389.774 487.738 389.957 487.232C390.14 486.725 390.35 486.229 390.585 485.744C392.866 481.112 396.562 478.932 401.209 477.263Z" fill="black"/>
<path d="M232.313 117.438C237.423 118.167 242.84 120.076 247.837 121.423L278.041 129.562C310.061 138.147 342.206 146.39 374.112 155.382L355.072 174.399C340.732 170.356 326.3 166.597 311.916 162.711C304.533 161.13 297.154 158.8 289.847 156.839C273.057 152.267 256.241 147.789 239.401 143.405L202.047 180.766C199.939 172.047 197.433 163.399 195.091 154.739L232.313 117.438Z" fill="white"/>
<path d="M152.962 67.0848C154.462 66.9681 155.964 66.9398 157.468 66.9998C157.969 67.0218 158.469 67.0561 158.967 67.1028C159.466 67.1495 159.963 67.2081 160.459 67.2788C160.955 67.3501 161.449 67.4331 161.941 67.5278C162.433 67.6231 162.923 67.7305 163.409 67.8498C163.896 67.9691 164.379 68.1001 164.859 68.2428C165.339 68.3861 165.816 68.5408 166.288 68.7068C166.761 68.8735 167.229 69.0515 167.693 69.2408C168.157 69.4301 168.615 69.6308 169.069 69.8428C169.523 70.0548 169.972 70.2778 170.415 70.5118C170.858 70.7451 171.295 70.9895 171.726 71.2448C172.157 71.5008 172.581 71.7668 172.999 72.0428C173.417 72.3188 173.828 72.6051 174.232 72.9018C174.636 73.1978 175.033 73.5038 175.421 73.8198C175.811 74.1358 176.192 74.4611 176.564 74.7958C176.937 75.1298 177.302 75.4731 177.658 75.8258C178.014 76.1785 178.361 76.5395 178.699 76.9088C179.051 77.2928 179.394 77.6858 179.726 78.0878C180.059 78.4891 180.381 78.8988 180.693 79.3168C181.005 79.7348 181.306 80.1601 181.596 80.5928C181.887 81.0261 182.167 81.4661 182.435 81.9128C182.703 82.3601 182.96 82.8138 183.205 83.2738C183.451 83.7338 183.684 84.1995 183.906 84.6708C184.128 85.1428 184.338 85.6201 184.536 86.1028C184.734 86.5848 184.92 87.0718 185.093 87.5638C185.267 88.0551 185.427 88.5508 185.575 89.0508C185.724 89.5508 185.86 90.0541 185.982 90.5608C186.106 91.0675 186.216 91.5768 186.313 92.0888C186.411 92.6008 186.495 93.1151 186.566 93.6318C186.638 94.1478 186.696 94.6658 186.741 95.1858C186.787 95.7051 186.819 96.2251 186.837 96.7458C186.857 97.2671 186.863 97.7885 186.855 98.3098C186.848 98.8311 186.828 99.3518 186.794 99.8718C186.239 109.497 181.622 116.583 174.608 122.848L192.699 190.165L175.499 207.343L174.036 208.642L173.32 208.245C166.619 181.702 159.022 155.368 152.14 128.869C146.907 127.893 142.07 126.266 137.716 123.119C137.302 122.821 136.896 122.514 136.497 122.196C136.098 121.878 135.707 121.551 135.325 121.214C134.943 120.877 134.569 120.531 134.203 120.175C133.838 119.819 133.482 119.455 133.135 119.081C132.788 118.707 132.45 118.326 132.122 117.936C131.794 117.545 131.476 117.147 131.167 116.741C130.859 116.335 130.562 115.921 130.274 115.501C129.986 115.079 129.709 114.651 129.443 114.217C129.177 113.782 128.921 113.341 128.677 112.894C128.433 112.446 128.2 111.993 127.978 111.534C127.756 111.074 127.546 110.61 127.347 110.141C127.149 109.671 126.962 109.197 126.787 108.718C126.612 108.239 126.449 107.756 126.298 107.27C126.148 106.782 126.009 106.292 125.882 105.798C125.756 105.304 125.642 104.808 125.54 104.308C125.438 103.808 125.349 103.307 125.272 102.803C125.192 102.292 125.125 101.78 125.07 101.266C125.016 100.752 124.974 100.237 124.944 99.7208C124.915 99.2048 124.899 98.6885 124.895 98.1718C124.892 97.6551 124.901 97.1385 124.923 96.6218C124.946 96.1058 124.981 95.5905 125.028 95.0758C125.076 94.5611 125.137 94.0481 125.21 93.5368C125.284 93.0248 125.369 92.5151 125.467 92.0078C125.566 91.5005 125.677 90.9958 125.801 90.4938C125.925 89.9925 126.061 89.4941 126.209 88.9988C126.357 88.5035 126.518 88.0125 126.69 87.5258C126.863 87.0385 127.048 86.5558 127.244 86.0778C127.441 85.5998 127.65 85.1271 127.87 84.6598C128.09 84.1925 128.322 83.7305 128.565 83.2738C128.808 82.8178 129.062 82.3681 129.327 81.9248C129.593 81.4815 129.869 81.0448 130.156 80.6148C130.444 80.1848 130.741 79.7625 131.049 79.3478C136.555 72.0408 144.058 68.3818 152.962 67.0848Z" fill="white"/>
<path d="M152.042 82.8648C155.423 82.4058 158.594 82.4218 161.79 83.7398C162.266 83.9318 162.73 84.1471 163.184 84.3858C163.638 84.6251 164.079 84.8864 164.506 85.1698C164.934 85.4531 165.347 85.7574 165.743 86.0828C166.14 86.4074 166.519 86.7514 166.881 87.1148C167.243 87.4781 167.586 87.8588 167.91 88.2568C168.234 88.6548 168.536 89.0678 168.818 89.4958C169.1 89.9244 169.36 90.3661 169.597 90.8208C169.835 91.2754 170.049 91.7408 170.239 92.2168C170.429 92.6821 170.595 93.1554 170.737 93.6368C170.879 94.1181 170.998 94.6054 171.092 95.0988C171.186 95.5914 171.256 96.0881 171.301 96.5888C171.346 97.0888 171.366 97.5898 171.361 98.0918C171.357 98.5938 171.327 99.0944 171.273 99.5938C171.219 100.092 171.141 100.587 171.037 101.079C170.934 101.57 170.807 102.055 170.655 102.535C170.505 103.013 170.33 103.483 170.132 103.945C168.078 108.713 164.403 111.188 159.814 113.118C156.454 113.461 153.339 113.575 150.138 112.28C149.652 112.085 149.176 111.866 148.712 111.623C148.248 111.38 147.798 111.114 147.36 110.825C146.923 110.536 146.502 110.226 146.096 109.894C145.69 109.562 145.302 109.211 144.932 108.84C144.562 108.468 144.212 108.079 143.882 107.673C143.552 107.266 143.243 106.844 142.955 106.406C142.668 105.968 142.404 105.516 142.162 105.051C141.921 104.586 141.704 104.11 141.51 103.623C141.32 103.151 141.154 102.67 141.012 102.182C140.87 101.694 140.753 101.199 140.661 100.699C140.569 100.199 140.501 99.6954 140.458 99.1888C140.416 98.6814 140.4 98.1734 140.408 97.6648C140.417 97.1561 140.451 96.6494 140.51 96.1448C140.569 95.6394 140.653 95.1384 140.762 94.6418C140.872 94.1444 141.005 93.6541 141.163 93.1708C141.322 92.6874 141.504 92.2131 141.709 91.7478C143.793 87.0488 147.484 84.6978 152.042 82.8648Z" fill="black"/>
<path d="M206.085 242.364C208.18 244.714 227.931 321.762 230.6 331.731L294.54 348.9C306.863 336.31 319.411 323.911 331.927 311.514L338.867 337.522L328.967 347.402L301.566 374.845C271.426 367.3 241.459 358.778 211.44 350.742C209.289 340.542 206.084 330.357 203.385 320.279L187.481 260.9L206.085 242.364Z" fill="white"/>
<path d="M381.716 0.095836C382.726 0.0191693 383.737 -0.0115002 384.749 0.00383312C385.761 0.0191665 386.77 0.0804979 387.777 0.187831C388.784 0.295165 389.784 0.448164 390.776 0.646831C391.769 0.844831 392.751 1.08783 393.721 1.37583C394.206 1.52117 394.687 1.6785 395.163 1.84783C395.641 2.01783 396.113 2.1995 396.58 2.39283C397.048 2.58617 397.511 2.79116 397.968 3.00783C398.426 3.2245 398.877 3.4525 399.323 3.69183C399.769 3.93116 400.208 4.1815 400.641 4.44284C401.075 4.70417 401.501 4.9765 401.92 5.25984C402.34 5.5425 402.752 5.83583 403.157 6.13983C403.562 6.44316 403.959 6.75684 404.348 7.08084C404.737 7.40484 405.117 7.73817 405.489 8.08084C405.861 8.4235 406.224 8.7755 406.579 9.13684C406.934 9.49817 407.279 9.86817 407.614 10.2468C407.95 10.6255 408.277 11.0122 408.593 11.4068C408.909 11.8022 409.215 12.2048 409.511 12.6148C409.807 13.0255 410.093 13.4432 410.367 13.8678C410.643 14.2925 410.907 14.7238 411.16 15.1618C411.413 15.6005 411.656 16.0448 411.886 16.4948C412.124 16.9528 412.351 17.4162 412.566 17.8848C412.781 18.3535 412.985 18.8275 413.177 19.3068C413.369 19.7855 413.55 20.2688 413.718 20.7568C413.886 21.2448 414.042 21.7365 414.186 22.2318C414.33 22.7272 414.462 23.2258 414.581 23.7278C414.701 24.2298 414.807 24.7345 414.901 25.2418C414.996 25.7492 415.078 26.2585 415.147 26.7698C415.216 27.2812 415.273 27.7938 415.317 28.3078C415.361 28.8218 415.393 29.3368 415.411 29.8528C415.43 30.3682 415.435 30.8838 415.428 31.3998C415.421 31.9158 415.402 32.4312 415.37 32.9458C415.338 33.4612 415.293 33.9752 415.235 34.4878C415.178 35.0005 415.108 35.5115 415.025 36.0208C414.942 36.5302 414.847 37.0372 414.739 37.5418C414.631 38.0465 414.511 38.5482 414.378 39.0468C414.246 39.5455 414.101 40.0405 413.944 40.5318C413.789 41.0238 413.622 41.5115 413.442 41.9948C413.262 42.4782 413.071 42.9568 412.867 43.4308C412.664 43.9048 412.449 44.3732 412.222 44.8358C411.995 45.2992 411.757 45.7565 411.507 46.2078C411.258 46.6592 410.997 47.1042 410.725 47.5428C410.453 47.9808 410.171 48.4118 409.877 48.8358C409.584 49.2605 409.28 49.6772 408.966 50.0858C408.652 50.4952 408.328 50.8965 407.994 51.2898C407.66 51.6825 407.317 52.0668 406.964 52.4428C406.611 52.8188 406.249 53.1855 405.877 53.5428C405.506 53.9008 405.126 54.2492 404.736 54.5878C404.348 54.9272 403.95 55.2562 403.545 55.5748C403.14 55.8942 402.728 56.2032 402.307 56.5018C401.887 56.8005 401.459 57.0885 401.023 57.3658C400.589 57.6425 400.147 57.9085 399.699 58.1638C399.251 58.4192 398.797 58.6632 398.336 58.8958C389.886 63.1308 381.106 62.6598 372.369 59.6788L312.494 119.576L306.733 125.335L280.711 118.219C306.155 93.6758 330.825 68.2128 355.827 43.2118C354.987 40.8338 354.242 38.2648 353.873 35.7648C353.795 35.2535 353.729 34.7402 353.676 34.2248C353.623 33.7102 353.583 33.1942 353.555 32.6768C353.528 32.1602 353.513 31.6428 353.511 31.1248C353.51 30.6075 353.521 30.0902 353.545 29.5728C353.569 29.0562 353.606 28.5402 353.655 28.0248C353.705 27.5095 353.768 26.9958 353.843 26.4838C353.919 25.9712 354.007 25.4612 354.107 24.9538C354.208 24.4458 354.321 23.9408 354.446 23.4388C354.572 22.9368 354.71 22.4382 354.86 21.9428C355.011 21.4475 355.174 20.9562 355.349 20.4688C355.524 19.9815 355.711 19.4988 355.909 19.0208C356.109 18.5428 356.319 18.0702 356.541 17.6028C356.764 17.1355 356.998 16.6738 357.243 16.2178C357.488 15.7618 357.745 15.3125 358.013 14.8698C358.281 14.4265 358.559 13.9902 358.848 13.5608C359.138 13.1315 359.438 12.7098 359.748 12.2958C365.266 4.99083 372.824 1.40484 381.716 0.095836Z" fill="white"/>
<path d="M381.069 15.8488C384.043 15.6258 386.754 15.4898 389.625 16.5068C393.623 17.9238 396.841 20.7978 398.585 24.6778C398.796 25.1458 398.983 25.6228 399.145 26.1088C399.308 26.5948 399.446 27.0878 399.561 27.5878C399.675 28.0878 399.764 28.5921 399.828 29.1008C399.892 29.6095 399.93 30.1201 399.943 30.6328C399.956 31.1455 399.944 31.6578 399.907 32.1698C399.869 32.6811 399.806 33.1891 399.718 33.6938C399.63 34.1991 399.517 34.6988 399.379 35.1928C399.242 35.6868 399.08 36.1728 398.894 36.6508C396.884 41.7948 393.011 44.2258 388.163 46.2108C384.878 46.5788 381.729 46.5668 378.625 45.2888C378.144 45.0928 377.673 44.8728 377.214 44.6288C376.755 44.3855 376.309 44.1191 375.877 43.8298C375.445 43.5411 375.029 43.2311 374.628 42.8998C374.228 42.5685 373.845 42.2178 373.48 41.8478C373.115 41.4771 372.77 41.0895 372.444 40.6848C372.119 40.2795 371.815 39.8588 371.532 39.4228C371.249 38.9868 370.989 38.5375 370.752 38.0748C370.515 37.6121 370.301 37.1388 370.112 36.6548C370.013 36.4035 369.922 36.1495 369.837 35.8928C369.752 35.6361 369.673 35.3778 369.602 35.1178C369.53 34.8571 369.465 34.5948 369.407 34.3308C369.349 34.0668 369.298 33.8015 369.254 33.5348C369.21 33.2688 369.173 33.0015 369.143 32.7328C369.113 32.4641 369.09 32.1951 369.073 31.9258C369.057 31.6558 369.048 31.3858 369.046 31.1158C369.044 30.8451 369.05 30.5751 369.062 30.3058C369.074 30.0358 369.093 29.7661 369.119 29.4968C369.145 29.2281 369.178 28.9601 369.219 28.6928C369.259 28.4261 369.306 28.1605 369.36 27.8958C369.414 27.6305 369.475 27.3671 369.543 27.1058C369.611 26.8445 369.686 26.5848 369.767 26.3268C369.849 26.0695 369.937 25.8141 370.031 25.5608C370.126 25.3081 370.227 25.0578 370.335 24.8098C370.443 24.5625 370.557 24.3178 370.677 24.0758C372.895 19.6698 376.595 17.4248 381.069 15.8488Z" fill="black"/>
<path d="M253.554 194.897C263.043 198.078 273.142 200.266 282.828 202.858L343.248 219.106L377.733 347.76C371.256 353.995 364.99 360.477 358.641 366.844C355.525 352.463 351.051 338.112 347.186 323.892L324.166 238.123C303.151 231.739 281.526 226.634 260.296 220.945L222.924 258.329L215.92 232.461L253.554 194.897Z" fill="white"/>
<path d="M157.022 192.825C160.107 199.482 162.199 211.274 164.138 218.71C128.817 252.969 94.4822 288.37 59.6432 323.132C60.2018 324.688 60.6892 326.266 61.1052 327.867C63.1142 335.665 61.7242 344.431 57.6002 351.313C57.3375 351.751 57.0642 352.182 56.7802 352.607C56.4962 353.031 56.2018 353.449 55.8972 353.859C55.5918 354.269 55.2768 354.671 54.9522 355.066C54.6275 355.46 54.2935 355.846 53.9502 356.224C53.6062 356.602 53.2531 356.971 52.8911 357.332C52.5291 357.692 52.1585 358.044 51.7791 358.386C51.3991 358.728 51.0111 359.06 50.6151 359.383C50.2191 359.705 49.8155 360.018 49.4041 360.322C48.9928 360.624 48.5742 360.917 48.1482 361.199C47.7222 361.481 47.2895 361.753 46.8502 362.014C46.4108 362.274 45.9655 362.524 45.5142 362.763C45.0622 363.001 44.6048 363.229 44.1422 363.445C43.6788 363.661 43.2105 363.865 42.7372 364.058C42.2645 364.251 41.7868 364.432 41.3041 364.602C40.8221 364.77 40.3361 364.927 39.8461 365.073C39.3568 365.218 38.8638 365.351 38.3672 365.472C29.2862 367.662 21.0072 365.604 13.2092 360.794C9.05615 357.636 5.62316 353.938 3.25916 349.249C3.03116 348.789 2.81482 348.325 2.61016 347.856C2.40482 347.386 2.21149 346.912 2.03015 346.433C1.84815 345.953 1.67848 345.47 1.52115 344.983C1.36315 344.495 1.21715 344.004 1.08315 343.51C0.949814 343.015 0.828482 342.517 0.719149 342.017C0.609815 341.516 0.512815 341.013 0.428148 340.507C0.343482 340.001 0.271494 339.494 0.21216 338.986C0.152827 338.476 0.105821 337.966 0.0711538 337.456C0.0364872 336.944 0.0144929 336.432 0.00515958 335.92C-0.00417375 335.408 -0.000845911 334.895 0.0151541 334.383C0.0311541 333.871 0.0598193 333.359 0.101153 332.849C0.141819 332.338 0.195156 331.829 0.261156 331.321C0.327823 330.812 0.406482 330.306 0.497149 329.802C0.588482 329.297 0.691828 328.795 0.807162 328.297C0.923162 327.797 1.05115 327.301 1.19115 326.809C1.33115 326.315 1.48316 325.826 1.64716 325.341C1.81182 324.855 1.98849 324.375 2.17716 323.899C2.36649 323.422 2.56716 322.95 2.77916 322.484C2.9905 322.017 3.21383 321.556 3.44916 321.101C3.68383 320.645 3.92949 320.195 4.18616 319.752C4.44349 319.308 4.71149 318.872 4.99016 318.442C5.26816 318.012 5.55715 317.589 5.85715 317.173C6.15648 316.757 6.46582 316.348 6.78516 315.948C7.10516 315.547 7.43448 315.155 7.77315 314.771C8.11248 314.386 8.46081 314.01 8.81815 313.643C9.17548 313.276 9.54181 312.918 9.91715 312.569C10.2925 312.22 10.6761 311.88 11.0681 311.55C11.4601 311.22 11.8602 310.9 12.2682 310.59C12.6762 310.279 13.0915 309.979 13.5141 309.689C13.9368 309.399 14.3662 309.12 14.8022 308.852C15.2388 308.583 15.6818 308.325 16.1312 308.079C16.5805 307.831 17.0355 307.596 17.4962 307.372C25.9782 303.262 34.4332 303.689 43.1472 306.711L157.022 192.825Z" fill="white"/>
<path d="M27.2362 320.176C30.3102 319.782 33.3332 319.753 36.2712 320.842C40.2512 322.316 43.4392 325.199 45.1642 329.097C45.3802 329.585 45.5702 330.083 45.7342 330.591C45.8989 331.098 46.0362 331.613 46.1462 332.135C46.2569 332.657 46.3402 333.183 46.3962 333.715C46.4516 334.245 46.4792 334.778 46.4792 335.311C46.4799 335.844 46.4526 336.376 46.3972 336.908C46.3419 337.438 46.2592 337.965 46.1492 338.487C46.0392 339.009 45.9022 339.524 45.7382 340.032C45.5742 340.54 45.3846 341.038 45.1692 341.526C43.0492 346.248 39.3892 348.598 34.8022 350.481C31.4562 350.892 28.3092 350.88 25.1432 349.575C24.6692 349.383 24.2062 349.168 23.7542 348.93C23.3022 348.692 22.8629 348.432 22.4362 348.15C22.0102 347.868 21.5995 347.565 21.2042 347.242C20.8082 346.919 20.4292 346.576 20.0672 346.215C19.7059 345.853 19.3635 345.475 19.0402 345.08C18.7162 344.684 18.4132 344.274 18.1312 343.848C17.8486 343.422 17.5879 342.983 17.3492 342.531C17.1106 342.079 16.8952 341.616 16.7032 341.143C16.5086 340.672 16.3382 340.191 16.1922 339.703C16.0462 339.215 15.9249 338.72 15.8282 338.22C15.7316 337.719 15.6599 337.215 15.6132 336.707C15.5672 336.199 15.5469 335.691 15.5522 335.181C15.5569 334.671 15.5872 334.162 15.6432 333.656C15.6992 333.149 15.7802 332.646 15.8862 332.148C15.9929 331.649 16.1239 331.157 16.2792 330.672C16.4352 330.186 16.6149 329.709 16.8182 329.242C18.9052 324.443 22.6002 322.06 27.2362 320.176Z" fill="black"/>
<path d="M535.206 141.473C538.465 141.25 542.128 141.743 545.274 142.618C545.757 142.75 546.237 142.895 546.713 143.051C547.189 143.207 547.661 143.376 548.129 143.557C548.596 143.737 549.059 143.928 549.517 144.132C549.975 144.336 550.428 144.551 550.875 144.777C551.322 145.003 551.763 145.24 552.198 145.489C552.633 145.737 553.062 145.997 553.484 146.267C553.906 146.537 554.321 146.817 554.73 147.108C555.138 147.398 555.538 147.699 555.931 148.011C556.324 148.321 556.709 148.642 557.086 148.973C557.463 149.303 557.831 149.642 558.191 149.991C558.55 150.34 558.901 150.698 559.243 151.064C559.585 151.43 559.917 151.805 560.24 152.189C560.563 152.571 560.876 152.962 561.179 153.362C561.482 153.76 561.776 154.167 562.059 154.581C562.342 154.994 562.614 155.414 562.875 155.842C563.137 156.269 563.388 156.703 563.628 157.143C563.883 157.603 564.126 158.069 564.358 158.542C564.589 159.014 564.809 159.491 565.016 159.975C565.224 160.458 565.419 160.946 565.602 161.44C565.785 161.932 565.956 162.43 566.115 162.932C566.273 163.433 566.418 163.938 566.551 164.447C566.684 164.956 566.805 165.468 566.912 165.983C567.019 166.497 567.114 167.015 567.195 167.535C567.276 168.054 567.345 168.575 567.4 169.099C567.455 169.621 567.498 170.145 567.527 170.671C567.556 171.196 567.571 171.722 567.574 172.248C567.577 172.774 567.566 173.299 567.543 173.825C567.52 174.35 567.483 174.875 567.433 175.399C567.383 175.922 567.32 176.444 567.244 176.965C567.168 177.485 567.079 178.003 566.977 178.519C566.875 179.035 566.76 179.548 566.633 180.059C566.505 180.569 566.365 181.075 566.212 181.579C566.065 182.065 565.906 182.547 565.735 183.025C565.564 183.503 565.382 183.976 565.187 184.445C564.993 184.914 564.788 185.378 564.571 185.837C564.354 186.296 564.125 186.749 563.886 187.197C563.647 187.645 563.397 188.086 563.136 188.522C562.875 188.957 562.604 189.386 562.322 189.808C562.04 190.23 561.748 190.645 561.446 191.053C561.143 191.461 560.831 191.861 560.509 192.254C560.187 192.646 559.856 193.031 559.515 193.407C559.174 193.783 558.825 194.15 558.466 194.51C558.107 194.868 557.739 195.218 557.363 195.56C556.987 195.9 556.603 196.232 556.21 196.554C555.818 196.876 555.418 197.189 555.01 197.491C554.603 197.793 554.188 198.086 553.766 198.368C553.344 198.65 552.915 198.922 552.48 199.183C552.045 199.444 551.603 199.694 551.155 199.934C542.46 204.562 533.52 203.97 524.391 201.137L400.414 325.051L387.196 338.263C384.905 329.637 382.568 321.023 380.183 312.422L508.049 184.619C506.905 181.843 506.138 178.738 505.817 175.751C505.761 175.241 505.718 174.729 505.687 174.217C505.656 173.704 505.638 173.191 505.633 172.678C505.628 172.164 505.636 171.651 505.656 171.139C505.677 170.625 505.71 170.113 505.756 169.602C505.802 169.09 505.861 168.581 505.932 168.073C506.003 167.564 506.087 167.058 506.184 166.554C506.281 166.049 506.39 165.547 506.511 165.049C506.633 164.55 506.767 164.055 506.913 163.563C507.059 163.071 507.217 162.582 507.388 162.098C507.559 161.614 507.741 161.134 507.936 160.659C508.13 160.184 508.336 159.714 508.554 159.249C508.772 158.784 509.001 158.325 509.242 157.872C509.483 157.418 509.735 156.971 509.998 156.53C510.261 156.089 510.534 155.655 510.819 155.228C511.104 154.8 511.399 154.38 511.704 153.968C512.01 153.555 512.326 153.15 512.651 152.754C518.529 145.64 526.176 142.335 535.206 141.473Z" fill="white"/>
<path d="M533.583 157.133C537.076 156.826 540.336 157.057 543.519 158.645C543.984 158.875 544.437 159.129 544.877 159.406C545.316 159.683 545.741 159.981 546.15 160.301C546.56 160.621 546.952 160.96 547.327 161.32C547.702 161.68 548.058 162.057 548.395 162.453C548.732 162.848 549.047 163.26 549.342 163.688C549.637 164.115 549.91 164.556 550.16 165.012C550.411 165.467 550.637 165.934 550.84 166.412C551.043 166.89 551.222 167.378 551.375 167.874C551.53 168.36 551.66 168.854 551.765 169.354C551.87 169.854 551.95 170.357 552.005 170.865C552.06 171.373 552.089 171.882 552.093 172.393C552.097 172.903 552.076 173.413 552.029 173.922C551.982 174.43 551.909 174.935 551.812 175.437C551.715 175.938 551.592 176.433 551.445 176.923C551.298 177.412 551.127 177.893 550.932 178.365C550.737 178.837 550.518 179.298 550.277 179.748C548.05 183.939 544.345 186.196 539.966 187.633C536.636 188.04 533.496 187.91 530.377 186.543C529.909 186.341 529.453 186.116 529.008 185.869C528.563 185.621 528.131 185.351 527.713 185.06C527.295 184.768 526.893 184.457 526.507 184.125C526.12 183.793 525.751 183.443 525.4 183.074C525.049 182.705 524.718 182.319 524.405 181.917C524.093 181.514 523.802 181.097 523.532 180.665C523.262 180.233 523.014 179.788 522.789 179.332C522.564 178.875 522.362 178.408 522.184 177.931C522.004 177.457 521.848 176.975 521.715 176.486C521.583 175.996 521.475 175.501 521.391 175.001C521.308 174.501 521.249 173.998 521.216 173.492C521.182 172.985 521.173 172.478 521.19 171.972C521.206 171.465 521.247 170.96 521.314 170.458C521.38 169.955 521.471 169.457 521.587 168.963C521.702 168.469 521.842 167.982 522.006 167.502C522.169 167.022 522.356 166.551 522.567 166.09C524.786 161.19 528.738 158.841 533.583 157.133Z" fill="black"/>
<path d="M437.684 304.145C439.856 306.706 443.789 325.377 444.943 329.835C427.165 347.087 409.835 364.858 392.317 382.377L290.962 483.704C291.661 485.607 292.263 487.621 292.704 489.603C294.421 497.321 292.743 505.861 288.553 512.519C288.279 512.953 287.995 513.381 287.699 513.802C287.403 514.222 287.097 514.635 286.781 515.041C286.465 515.446 286.139 515.843 285.803 516.232C285.467 516.621 285.122 517.002 284.767 517.374C284.413 517.746 284.049 518.108 283.675 518.462C283.303 518.816 282.921 519.16 282.531 519.495C282.141 519.829 281.743 520.154 281.336 520.469C280.93 520.783 280.516 521.088 280.094 521.382C279.673 521.676 279.244 521.96 278.808 522.233C278.373 522.505 277.931 522.767 277.482 523.018C277.034 523.268 276.579 523.508 276.118 523.736C275.658 523.964 275.191 524.18 274.719 524.385C274.248 524.59 273.772 524.783 273.291 524.964C272.81 525.145 272.325 525.314 271.835 525.471C271.345 525.627 270.852 525.772 270.355 525.905C269.859 526.037 269.359 526.156 268.856 526.264C260.064 528.15 251.899 526.045 244.443 521.27C243.442 520.56 242.486 519.795 241.574 518.974C240.662 518.152 239.802 517.28 238.993 516.358C238.184 515.435 237.431 514.468 236.735 513.458C236.04 512.447 235.406 511.399 234.833 510.314C234.595 509.858 234.369 509.396 234.153 508.929C233.939 508.461 233.736 507.989 233.544 507.512C233.353 507.034 233.174 506.553 233.006 506.067C232.838 505.58 232.683 505.09 232.54 504.596C232.398 504.102 232.267 503.604 232.148 503.104C232.03 502.603 231.925 502.1 231.832 501.594C231.739 501.088 231.659 500.581 231.591 500.071C231.523 499.561 231.468 499.049 231.426 498.537C231.384 498.024 231.354 497.511 231.338 496.997C231.322 496.483 231.318 495.969 231.326 495.455C231.336 494.94 231.358 494.426 231.392 493.914C231.427 493.4 231.475 492.888 231.535 492.378C231.595 491.867 231.668 491.358 231.753 490.851C231.839 490.343 231.938 489.839 232.048 489.337C232.159 488.834 232.282 488.335 232.418 487.839C232.554 487.343 232.702 486.85 232.862 486.362C233.019 485.877 233.188 485.396 233.368 484.92C233.549 484.443 233.741 483.971 233.944 483.504C234.148 483.036 234.364 482.574 234.59 482.118C234.817 481.661 235.055 481.21 235.303 480.766C235.552 480.321 235.811 479.883 236.081 479.451C236.352 479.019 236.633 478.593 236.924 478.175C237.216 477.757 237.517 477.346 237.828 476.943C238.14 476.539 238.462 476.144 238.792 475.757C239.124 475.369 239.464 474.989 239.814 474.619C240.164 474.248 240.522 473.886 240.89 473.533C241.258 473.18 241.634 472.836 242.018 472.502C242.403 472.167 242.796 471.842 243.196 471.527C243.597 471.212 244.005 470.907 244.42 470.612C244.836 470.316 245.258 470.032 245.688 469.758C246.118 469.483 246.554 469.219 246.996 468.967C247.439 468.714 247.888 468.472 248.342 468.242C257.024 463.888 265.494 464.343 274.518 467.261L437.684 304.145Z" fill="white"/>
<path d="M260.696 480.446C263.557 480.299 266.497 480.77 269.091 482.01C269.562 482.234 270.02 482.481 270.465 482.752C270.91 483.022 271.34 483.315 271.755 483.631C272.17 483.946 272.567 484.282 272.947 484.639C273.328 484.995 273.689 485.37 274.03 485.764C274.371 486.157 274.692 486.567 274.991 486.994C275.29 487.42 275.567 487.861 275.82 488.317C276.074 488.771 276.304 489.238 276.509 489.718C276.715 490.196 276.895 490.684 277.05 491.182C277.213 491.695 277.35 492.215 277.459 492.742C277.569 493.269 277.651 493.801 277.705 494.337C277.76 494.873 277.787 495.41 277.785 495.948C277.784 496.486 277.755 497.023 277.698 497.559C277.641 498.094 277.557 498.625 277.445 499.152C277.333 499.679 277.194 500.199 277.028 500.711C276.863 501.223 276.671 501.726 276.453 502.218C276.235 502.71 275.993 503.19 275.725 503.658C273.177 508.039 269.381 509.997 264.686 511.314C261.06 511.558 257.572 511.053 254.405 509.175C253.968 508.915 253.545 508.634 253.135 508.332C252.726 508.029 252.332 507.707 251.955 507.365C251.578 507.023 251.219 506.664 250.878 506.286C250.537 505.908 250.216 505.514 249.914 505.104C249.613 504.694 249.333 504.27 249.074 503.832C248.815 503.394 248.578 502.944 248.365 502.482C248.151 502.02 247.961 501.548 247.794 501.068C247.628 500.587 247.486 500.099 247.368 499.604C247.245 499.1 247.147 498.592 247.074 498.08C247.001 497.566 246.954 497.051 246.933 496.533C246.912 496.015 246.916 495.498 246.947 494.981C246.978 494.463 247.035 493.949 247.117 493.437C247.199 492.925 247.306 492.419 247.439 491.919C247.572 491.417 247.729 490.924 247.912 490.44C248.094 489.954 248.3 489.48 248.53 489.016C248.759 488.551 249.012 488.099 249.287 487.66C252.032 483.344 255.913 481.545 260.696 480.446Z" fill="black"/>
<path d="M434.585 93.9998C435.61 93.9118 436.637 93.8724 437.665 93.8818C438.694 93.8911 439.72 93.9491 440.742 94.0558C441.766 94.1631 442.781 94.3184 443.789 94.5218C444.797 94.7251 445.794 94.9758 446.778 95.2738C447.253 95.4178 447.724 95.5735 448.191 95.7408C448.659 95.9088 449.122 96.0878 449.58 96.2778C450.038 96.4684 450.492 96.6701 450.94 96.8828C451.388 97.0954 451.831 97.3191 452.268 97.5538C452.706 97.7891 453.137 98.0348 453.562 98.2908C453.988 98.5468 454.406 98.8131 454.818 99.0898C455.23 99.3664 455.635 99.6534 456.032 99.9508C456.43 100.247 456.821 100.554 457.203 100.87C457.586 101.186 457.96 101.512 458.326 101.847C458.693 102.181 459.051 102.525 459.4 102.878C459.75 103.23 460.09 103.59 460.422 103.96C460.754 104.329 461.076 104.706 461.388 105.092C461.701 105.477 462.004 105.87 462.298 106.271C462.592 106.671 462.875 107.078 463.148 107.493C463.421 107.907 463.684 108.327 463.936 108.755C464.189 109.182 464.431 109.615 464.661 110.055C464.905 110.512 465.138 110.975 465.36 111.444C465.582 111.912 465.791 112.386 465.988 112.866C466.186 113.344 466.372 113.828 466.546 114.317C466.72 114.805 466.882 115.297 467.031 115.794C467.181 116.29 467.318 116.789 467.442 117.293C467.567 117.796 467.679 118.302 467.779 118.811C467.879 119.319 467.966 119.83 468.04 120.343C468.114 120.856 468.176 121.371 468.224 121.887C468.274 122.403 468.31 122.92 468.332 123.438C468.356 123.956 468.366 124.474 468.363 124.992C468.361 125.51 468.345 126.028 468.317 126.546C468.289 127.063 468.248 127.58 468.194 128.096C468.14 128.611 468.074 129.125 467.994 129.638C467.915 130.15 467.823 130.659 467.718 131.167C467.614 131.675 467.497 132.18 467.367 132.682C467.237 133.184 467.095 133.682 466.941 134.177C466.792 134.665 466.631 135.149 466.457 135.63C466.284 136.11 466.099 136.585 465.901 137.057C465.705 137.527 465.496 137.993 465.275 138.454C465.055 138.914 464.824 139.369 464.581 139.819C464.339 140.268 464.085 140.711 463.82 141.148C463.556 141.584 463.28 142.014 462.994 142.437C462.708 142.86 462.412 143.276 462.105 143.684C461.798 144.092 461.481 144.492 461.155 144.885C460.829 145.277 460.492 145.662 460.146 146.038C459.801 146.413 459.446 146.78 459.082 147.139C458.718 147.497 458.346 147.846 457.964 148.186C457.584 148.525 457.194 148.855 456.796 149.176C456.399 149.496 455.994 149.807 455.58 150.107C455.168 150.407 454.748 150.697 454.32 150.977C453.893 151.256 453.459 151.525 453.018 151.783C452.577 152.04 452.13 152.287 451.677 152.523C443.028 156.991 434.293 156.487 425.284 153.545L375.138 203.683L395.757 280.551L376.645 299.568C371.693 278.64 365.527 257.826 359.973 237.038C357.197 228.061 355.072 218.769 352.654 209.681L262.756 185.604C269.141 179.331 275.459 172.992 281.71 166.587C307.137 172.447 333.325 180.361 358.652 187.15L408.766 137.089C407.911 134.559 407.13 131.969 406.765 129.317C406.692 128.807 406.631 128.296 406.583 127.784C406.535 127.271 406.5 126.758 406.477 126.244C406.455 125.729 406.445 125.214 406.447 124.7C406.45 124.185 406.465 123.671 406.493 123.157C406.521 122.643 406.562 122.13 406.616 121.618C406.67 121.106 406.736 120.595 406.814 120.087C406.893 119.578 406.984 119.072 407.088 118.568C407.192 118.063 407.308 117.562 407.436 117.064C407.565 116.565 407.706 116.07 407.859 115.579C408.012 115.087 408.177 114.599 408.354 114.116C408.532 113.632 408.721 113.154 408.921 112.68C409.122 112.206 409.334 111.737 409.558 111.274C409.782 110.81 410.018 110.353 410.264 109.901C410.511 109.449 410.769 109.003 411.037 108.564C411.306 108.125 411.585 107.693 411.875 107.268C412.165 106.842 412.466 106.424 412.776 106.014C418.215 98.8728 425.808 95.1268 434.585 93.9998Z" fill="white"/>
<path d="M437.025 109.284C439.839 109.58 442.381 109.948 444.894 111.367C445.345 111.619 445.784 111.894 446.208 112.191C446.632 112.487 447.04 112.803 447.433 113.141C447.826 113.478 448.201 113.834 448.557 114.209C448.914 114.583 449.251 114.975 449.569 115.384C449.887 115.792 450.184 116.215 450.459 116.653C450.735 117.091 450.988 117.541 451.218 118.005C451.449 118.468 451.656 118.942 451.838 119.426C452.022 119.91 452.18 120.402 452.314 120.902C452.456 121.421 452.57 121.946 452.657 122.477C452.744 123.008 452.803 123.542 452.834 124.08C452.865 124.616 452.868 125.154 452.843 125.692C452.819 126.229 452.766 126.764 452.685 127.296C452.605 127.828 452.496 128.354 452.36 128.875C452.225 129.395 452.063 129.908 451.873 130.412C451.685 130.916 451.47 131.408 451.229 131.89C450.989 132.371 450.725 132.839 450.435 133.293C447.778 137.465 443.762 139.324 439.125 140.384C435.206 140.351 431.913 139.833 428.61 137.551C428.187 137.26 427.78 136.949 427.388 136.618C426.996 136.286 426.622 135.935 426.266 135.566C425.91 135.196 425.573 134.81 425.255 134.407C424.938 134.003 424.642 133.585 424.367 133.152C424.092 132.718 423.839 132.272 423.609 131.814C423.379 131.355 423.173 130.886 422.99 130.407C422.808 129.927 422.65 129.439 422.516 128.944C422.383 128.448 422.275 127.947 422.192 127.441C422.105 126.928 422.044 126.412 422.009 125.894C421.974 125.376 421.966 124.857 421.983 124.337C422 123.817 422.044 123.3 422.114 122.786C422.184 122.27 422.28 121.76 422.401 121.255C422.523 120.749 422.669 120.251 422.841 119.761C423.013 119.27 423.209 118.789 423.429 118.319C423.649 117.848 423.893 117.39 424.159 116.944C424.427 116.497 424.715 116.065 425.025 115.649C428.105 111.551 432.181 110.081 437.025 109.284Z" fill="black"/>
<path d="M242.752 156.405C251.318 157.551 260.475 160.947 268.847 163.25L174.559 257.464L202.095 360.187L304.955 387.764C317.366 375.23 329.852 362.771 342.413 350.387C344.498 359.034 346.945 367.623 349.221 376.223L311.845 413.614C268.877 402.495 226.189 390.259 183.192 379.252C179.014 364.812 175.374 350.165 171.482 335.643L148.69 250.485L242.752 156.405Z" fill="white"/>
<path d="M138.836 260.351C140.729 262.137 169.889 374.469 173.768 388.667C188.156 391.986 202.463 396.316 216.733 400.142L302.403 423.069L283.328 442.093C245.012 431.13 206.25 421.614 167.832 410.988L146.393 432.408L117.933 460.838C120.349 467.699 121.277 474.745 119.181 481.848C116.915 489.528 110.943 496.651 103.898 500.426C103.44 500.667 102.976 500.897 102.506 501.115C102.036 501.334 101.561 501.54 101.081 501.734C100.601 501.929 100.117 502.111 99.6281 502.282C99.1388 502.452 98.6458 502.611 98.1491 502.757C97.6518 502.904 97.1515 503.038 96.6481 503.159C96.1448 503.28 95.6385 503.389 95.1291 503.485C94.6205 503.581 94.1095 503.664 93.5961 503.735C93.0828 503.806 92.5681 503.864 92.0521 503.909C91.5361 503.954 91.0195 503.987 90.5021 504.007C89.9848 504.026 89.4671 504.033 88.9491 504.027C88.4311 504.021 87.9135 504.002 87.3961 503.97C86.8795 503.938 86.3638 503.894 85.8491 503.837C85.3338 503.779 84.8204 503.709 84.3091 503.626C83.7978 503.543 83.2891 503.448 82.7831 503.34C82.2764 503.232 81.7728 503.111 81.2721 502.978C80.7715 502.845 80.2745 502.7 79.7811 502.542C79.2985 502.393 78.8198 502.233 78.3451 502.06C77.8698 501.887 77.3994 501.702 76.9341 501.506C76.4688 501.31 76.0085 501.102 75.5531 500.882C75.0985 500.663 74.6491 500.432 74.2051 500.19C73.7618 499.948 73.3248 499.695 72.8941 499.43C72.4635 499.166 72.0398 498.891 71.6231 498.606C71.2064 498.321 70.7971 498.025 70.3951 497.719C69.9931 497.413 69.5988 497.097 69.2121 496.771C68.8261 496.445 68.4485 496.11 68.0791 495.765C67.7105 495.42 67.3501 495.066 66.9981 494.703C66.6468 494.34 66.3048 493.969 65.9721 493.589C65.6394 493.208 65.3164 492.82 65.0031 492.424C64.6904 492.027 64.3874 491.623 64.0941 491.212C63.8014 490.8 63.5191 490.381 63.2471 489.955C62.9758 489.529 62.7151 489.097 62.4651 488.658C62.2145 488.219 61.9754 487.774 61.7481 487.323C61.5134 486.864 61.2905 486.399 61.0791 485.929C60.8678 485.459 60.6681 484.984 60.4801 484.504C60.2921 484.024 60.1158 483.539 59.9511 483.051C59.7871 482.562 59.6351 482.07 59.4951 481.573C59.3551 481.077 59.2275 480.578 59.1121 480.075C58.9968 479.573 58.8941 479.068 58.8041 478.56C58.7134 478.053 58.6355 477.543 58.5701 477.032C58.5048 476.52 58.4521 476.008 58.4121 475.494C58.3721 474.98 58.3448 474.465 58.3301 473.95C58.3154 473.435 58.3135 472.919 58.3241 472.404C58.3348 471.889 58.3584 471.374 58.3951 470.859C58.4311 470.345 58.4798 469.832 58.5411 469.32C58.6024 468.808 58.6765 468.298 58.7631 467.79C58.8498 467.282 58.9488 466.776 59.0601 466.273C59.1721 465.77 59.2961 465.269 59.4321 464.772C59.5681 464.274 59.7165 463.781 59.8771 463.291C60.0345 462.805 60.2038 462.323 60.3851 461.846C60.5665 461.368 60.7594 460.895 60.9641 460.427C61.1681 459.959 61.3841 459.496 61.6121 459.039C61.8395 458.582 62.0781 458.13 62.3281 457.684C62.5781 457.238 62.8388 456.8 63.1101 456.367C63.3821 455.934 63.6645 455.508 63.9571 455.09C64.2498 454.671 64.5528 454.26 64.8661 453.857C65.1795 453.453 65.5024 453.057 65.8351 452.67C66.1678 452.282 66.5101 451.904 66.8621 451.533C67.2135 451.162 67.5738 450.8 67.9431 450.447C68.3124 450.094 68.6905 449.751 69.0771 449.417C69.4638 449.083 69.8584 448.758 70.2611 448.444C70.6638 448.129 71.0738 447.825 71.4911 447.531C71.9091 447.237 72.3338 446.953 72.7651 446.68C73.1971 446.407 73.6354 446.144 74.0801 445.893C74.5248 445.642 74.9755 445.401 75.4321 445.172C84.0071 440.925 92.5881 441.4 101.442 444.375C117.782 427.528 134.593 411.055 151.286 394.554C140.227 356.242 131.076 317.347 120.196 278.975L138.836 260.351Z" fill="white"/>
<path d="M86.3302 457.73C89.4592 457.482 92.3912 457.577 95.3312 458.811C95.8065 459.009 96.2705 459.231 96.7232 459.477C97.1758 459.723 97.6152 459.991 98.0412 460.281C98.4665 460.571 98.8762 460.882 99.2702 461.214C99.6648 461.546 100.041 461.897 100.399 462.267C100.758 462.636 101.097 463.023 101.416 463.428C101.735 463.832 102.034 464.251 102.31 464.686C102.587 465.12 102.841 465.568 103.072 466.028C103.304 466.488 103.511 466.958 103.695 467.44C103.887 467.938 104.052 468.444 104.19 468.958C104.33 469.472 104.443 469.993 104.529 470.519C104.615 471.045 104.674 471.575 104.706 472.107C104.738 472.639 104.743 473.171 104.72 473.704C104.698 474.236 104.649 474.766 104.572 475.294C104.496 475.822 104.393 476.344 104.263 476.861C104.133 477.378 103.977 477.887 103.795 478.388C103.613 478.889 103.406 479.38 103.174 479.86C100.905 484.442 97.0812 486.751 92.3752 488.237C88.8402 488.572 85.5752 488.383 82.3532 486.761C81.8905 486.529 81.4405 486.275 81.0032 485.998C80.5658 485.72 80.1438 485.422 79.7372 485.102C79.3305 484.782 78.9408 484.442 78.5682 484.083C78.1962 483.723 77.8432 483.346 77.5092 482.95C77.1752 482.554 76.8622 482.143 76.5702 481.716C76.2782 481.289 76.0085 480.848 75.7612 480.394C75.5138 479.939 75.2902 479.473 75.0902 478.996C74.8902 478.518 74.7148 478.032 74.5642 477.537C74.4128 477.051 74.2859 476.559 74.1832 476.061C74.0805 475.562 74.0029 475.06 73.9502 474.554C73.8969 474.048 73.8688 473.54 73.8662 473.032C73.8635 472.522 73.8862 472.015 73.9342 471.509C73.9815 471.002 74.0538 470.499 74.1512 469.999C74.2485 469.499 74.3705 469.006 74.5172 468.519C74.6632 468.031 74.8332 467.552 75.0272 467.082C75.2205 466.612 75.4368 466.152 75.6762 465.703C78.0492 461.302 81.7542 459.206 86.3302 457.73Z" fill="black"/>
</svg>
